HIERARCHY
ROOT Hips
{
	OFFSET 0.000000 0.000000 0.000000
	CHANNELS 6 Xposition Yposition Zposition Xrotation Yrotation Zrotation
	JOINT LeftUpLeg_virtual
	{
		OFFSET 0.000000 0.000000 0.000000
		CHANNELS 3 Xrotation Yrotation Zrotation
		JOINT LeftUpLeg
		{
			OFFSET 11.394100 -6.187798 -0.413800
			CHANNELS 3 Xrotation Yrotation Zrotation
			JOINT LeftLeg
			{
				OFFSET 0.430247 -32.302673 3.732800
				CHANNELS 3 Xrotation Yrotation Zrotation
				JOINT LeftFoot
				{
					OFFSET -0.430247 -48.264931 -6.423300
					CHANNELS 3 Xrotation Yrotation Zrotation
					JOINT LeftToeBase
					{
						OFFSET 4.230900 -16.068199 23.438400
						CHANNELS 3 Xrotation Yrotation Zrotation
						JOINT LeftToe_End
						{
							OFFSET 4.510700 0.695400 19.974600
							CHANNELS 3 Xrotation Yrotation Zrotation
							End Site
							{
								OFFSET 0 0 0
							}
						}
					}
				}
			}
		}
	}
	JOINT RightUpLeg_virtual
	{
		OFFSET 0.000000 0.000000 0.000000
		CHANNELS 3 Xrotation Yrotation Zrotation
		JOINT RightUpLeg
		{
			OFFSET -11.333700 -6.187798 -0.413800
			CHANNELS 3 Xrotation Yrotation Zrotation
			JOINT RightLeg
			{
				OFFSET -0.430392 -32.302628 3.733000
				CHANNELS 3 Xrotation Yrotation Zrotation
				JOINT RightFoot
				{
					OFFSET 0.430392 -48.264973 -6.423500
					CHANNELS 3 Xrotation Yrotation Zrotation
					JOINT RightToeBase
					{
						OFFSET -4.230900 -16.068199 23.438400
						CHANNELS 3 Xrotation Yrotation Zrotation
						JOINT RightToe_End
						{
							OFFSET -4.510700 0.695400 19.974600
							CHANNELS 3 Xrotation Yrotation Zrotation
							End Site
							{
								OFFSET 0 0 0
							}
						}
					}
				}
			}
		}
	}
	JOINT Spine_virtual
	{
		OFFSET 0.000000 0.000000 0.000000
		CHANNELS 3 Xrotation Yrotation Zrotation
		JOINT Spine
		{
			OFFSET -0.002400 12.777504 0.315300
			CHANNELS 3 Xrotation Yrotation Zrotation
			JOINT Spine1
			{
				OFFSET -0.002067 5.816869 0.032633
				CHANNELS 3 Xrotation Yrotation Zrotation
				JOINT Spine1_split
				{
					OFFSET -0.002067 5.816869 0.032633
					CHANNELS 3 Xrotation Yrotation Zrotation
					JOINT Spine2
					{
						OFFSET -0.002067 5.816869 0.032633
						CHANNELS 3 Xrotation Yrotation Zrotation
						JOINT Neck_virtual
						{
							OFFSET 0.000000 0.000000 0.000000
							CHANNELS 3 Xrotation Yrotation Zrotation
							JOINT Neck
							{
								OFFSET -0.003700 21.199493 -0.826900
								CHANNELS 3 Xrotation Yrotation Zrotation
								JOINT Head
								{
									OFFSET 0.000000 20.442200 4.834800
									CHANNELS 3 Xrotation Yrotation Zrotation
									JOINT HeadTop_End
									{
										OFFSET 0.000000 34.668396 4.968400
										CHANNELS 3 Xrotation Yrotation Zrotation
										End Site
										{
											OFFSET 0 0 0
										}
									}
								}
							}
						}
						JOINT LeftShoulder_virtual
						{
							OFFSET 0.000000 0.000000 0.000000
							CHANNELS 3 Xrotation Yrotation Zrotation
							JOINT LeftShoulder
							{
								OFFSET 3.288150 8.794197 -1.372250
								CHANNELS 3 Xrotation Yrotation Zrotation
								JOINT LeftShoulder_split
								{
									OFFSET 3.288150 8.794197 -1.372250
									CHANNELS 3 Xrotation Yrotation Zrotation
									JOINT LeftArm
									{
										OFFSET 11.953299 -2.279007 -0.146200
										CHANNELS 3 Xrotation Yrotation Zrotation
										JOINT LeftForeArm
										{
											OFFSET 18.448900 0.000000 0.000000
											CHANNELS 3 Xrotation Yrotation Zrotation
											JOINT LeftHand
											{
												OFFSET 29.527798 0.000000 0.000000
												CHANNELS 3 Xrotation Yrotation Zrotation
												End Site
												{
													OFFSET 0 0 0
												}
											}
										}
									}
								}
							}
						}
						JOINT RightShoulder_virtual
						{
							OFFSET 0.000000 0.000000 0.000000
							CHANNELS 3 Xrotation Yrotation Zrotation
							JOINT RightShoulder
							{
								OFFSET -3.249400 8.794197 -1.372250
								CHANNELS 3 Xrotation Yrotation Zrotation
								JOINT RightShoulder_split
								{
									OFFSET -3.249400 8.794197 -1.372250
									CHANNELS 3 Xrotation Yrotation Zrotation
									JOINT RightArm
									{
										OFFSET -11.953299 -2.279007 -0.146200
										CHANNELS 3 Xrotation Yrotation Zrotation
										JOINT RightForeArm
										{
											OFFSET -18.448900 0.000000 0.000000
											CHANNELS 3 Xrotation Yrotation Zrotation
											JOINT RightHand
											{
												OFFSET -29.527802 0.000000 0.000000
												CHANNELS 3 Xrotation Yrotation Zrotation
												End Site
												{
													OFFSET 0 0 0
												}
											}
										}
									}
								}
							}
						}
					}
				}
			}
		}
	}
}
MOTION
Frames: 8
Frame Time: 0.03333333
-0.931571 47.804356 -20.815060 0.000000 0.000000 0.000000 2.705040 -11.600815 3.117942 -9.137407 -8.689298 10.642679 109.459806 8.076810 2.916095 22.748329 2.713227 -17.593497 -1.754232 4.610610 45.755355 0.000000 0.000000 0.000000 3.443695 -7.212045 2.322887 -5.675295 8.919060 -11.924995 109.298060 2.361262 0.655064 21.746923 5.334179 13.458579 14.382188 24.260653 8.756244 0.000000 0.000000 0.000000 2.969632 -8.464598 1.483222 2.076713 2.628899 -0.379023 0.249990 -0.020933 0.143979 -0.206678 -1.981006 0.784338 0.000000 0.000000 0.000000 0.483099 0.527676 -0.097108 -0.402808 1.506016 -0.962946 -0.504930 -1.619072 0.067448 0.000000 0.000000 0.000000 -0.211650 0.411220 0.049551 0.575880 -3.257775 -20.732344 1.871835 1.910261 -3.468703 13.799343 -21.997603 -48.362930 0.740817 -27.153899 1.104137 0.000000 0.000000 0.000000 -0.486868 0.269955 -0.121636 0.241522 7.425313 23.143486 -5.038805 -5.085967 -2.712867 5.673045 5.961727 63.163383 2.695196 25.024698 0.338839 0.000000 0.000000 0.000000 
-0.826158 47.748966 -20.743778 0.000000 0.000000 0.000000 2.625703 -11.689539 2.990463 -9.160785 -8.741356 10.696002 109.603328 8.062530 2.932331 22.687751 2.744941 -17.750277 -1.804392 4.596834 45.691705 0.000000 0.000000 0.000000 3.403184 -7.305445 2.209416 -5.633270 8.834879 -11.794209 109.164304 2.309495 0.648773 21.789079 5.253954 13.412722 14.284886 24.247199 8.837819 0.000000 0.000000 0.000000 2.942631 -8.383237 1.293890 2.132424 2.682209 -0.328676 0.202648 -0.009156 0.098934 -0.087414 -2.209161 0.826507 0.000000 0.000000 0.000000 0.465302 0.519991 -0.101966 -0.158520 1.629376 -1.123151 0.069296 -1.188081 0.145477 0.000000 0.000000 0.000000 -0.283600 0.426475 -0.020329 0.544555 -3.223572 -20.811108 1.839685 2.027672 -3.398454 14.165437 -21.376851 -48.454923 1.001319 -27.581648 1.194986 0.000000 0.000000 0.000000 -0.481241 0.295123 -0.125491 0.268866 7.118856 23.122321 -4.979688 -5.238662 -2.822215 5.520510 5.856089 63.003215 2.652178 25.240558 0.358018 0.000000 0.000000 0.000000 
-0.745900 47.665642 -20.618076 0.000000 0.000000 0.000000 2.543477 -11.856663 2.808682 -9.112003 -8.929880 10.829589 109.772020 7.936316 2.984919 22.573852 2.790182 -17.924510 -1.763100 4.625775 45.659876 0.000000 0.000000 0.000000 3.331991 -7.476959 2.028670 -5.659591 8.756723 -11.584728 109.139907 2.245370 0.591269 21.801568 5.170533 13.396656 14.022250 24.226341 8.955636 0.000000 0.000000 0.000000 2.806153 -8.508784 1.053313 2.129980 2.729196 -0.307142 0.143775 0.008016 0.098302 -0.014300 -2.409763 0.913150 0.000000 0.000000 0.000000 0.447860 0.501591 -0.074417 0.239793 1.679122 -0.977439 1.870563 -0.658277 -0.017920 0.000000 0.000000 0.000000 -0.339142 0.402274 -0.055653 0.539108 -2.999995 -20.803170 1.845518 2.085593 -3.249495 14.421770 -19.951958 -48.959424 1.160311 -29.361733 1.271219 0.000000 0.000000 0.000000 -0.482275 0.287628 -0.095368 0.277940 6.658433 23.249085 -4.882348 -5.177105 -2.810340 5.242441 5.440427 62.646065 2.525622 25.263123 0.379522 0.000000 0.000000 0.000000 
-0.694462 47.560837 -20.470524 0.000000 0.000000 0.000000 2.450431 -12.058334 2.589190 -8.981691 -9.229961 11.035870 109.948369 7.713516 3.065999 22.440320 2.877224 -18.084893 -1.620590 4.700690 45.657386 0.000000 0.000000 0.000000 3.228668 -7.725911 1.799338 -5.764328 8.688015 -11.304320 109.222491 2.162932 0.493084 21.766080 5.075017 13.403818 13.639071 24.193114 9.109709 0.000000 0.000000 0.000000 2.573348 -8.805664 0.781370 2.061719 2.771552 -0.308031 0.076674 0.024166 0.136700 0.031682 -2.547090 1.032379 0.000000 0.000000 0.000000 0.411568 0.477684 -0.011265 0.743585 1.676414 -0.617157 4.702645 -0.126637 -0.391923 0.000000 0.000000 0.000000 -0.366149 0.348755 -0.052059 0.558086 -2.659555 -20.713291 1.926619 2.089891 -3.040755 14.662495 -17.787373 -49.764471 1.229563 -32.064521 1.378022 0.000000 0.000000 0.000000 -0.485309 0.248545 -0.034615 0.270479 6.098882 23.463894 -4.745267 -4.874522 -2.724150 4.915056 4.770214 62.120611 2.337796 25.073889 0.408628 0.000000 0.000000 0.000000 
-0.645731 47.442871 -20.350109 0.000000 0.000000 0.000000 2.370552 -12.309898 2.348764 -8.798031 -9.597764 11.287103 110.125988 7.427640 3.151417 22.291941 3.035793 -18.225491 -1.426484 4.805004 45.686910 0.000000 0.000000 0.000000 3.132990 -8.048520 1.545904 -5.954538 8.631284 -10.972484 109.396258 2.063020 0.361450 21.713124 4.971538 13.417926 13.169233 24.147447 9.292893 0.000000 0.000000 0.000000 2.323713 -9.282160 0.503976 1.945508 2.829075 -0.319226 0.023015 0.039368 0.202579 0.052328 -2.585921 1.122198 0.000000 0.000000 0.000000 0.365638 0.459612 0.080702 1.312069 1.666754 -0.155342 8.264157 0.297746 -0.927379 0.000000 0.000000 0.000000 -0.368610 0.285397 -0.022390 0.594850 -2.298771 -20.562672 2.046000 2.051458 -2.862034 14.919220 -15.068342 -50.736592 1.253927 -35.131344 1.514045 0.000000 0.000000 0.000000 -0.483237 0.196413 0.043931 0.236081 5.515461 23.692289 -4.538522 -4.443564 -2.622340 4.560093 3.877373 61.475753 2.106405 24.666779 0.443673 0.000000 0.000000 0.000000 
-0.586845 47.300892 -20.268711 0.000000 0.000000 0.000000 2.335402 -12.616535 2.104749 -8.647461 -9.983074 11.551481 110.316967 7.097646 3.242492 22.210886 3.261071 -18.380401 -1.241376 4.921719 45.731702 0.000000 0.000000 0.000000 3.102703 -8.439520 1.283950 -6.244970 8.606917 -10.605613 109.637445 1.947438 0.223480 21.680400 4.864941 13.421072 12.665913 24.092338 9.500339 0.000000 0.000000 0.000000 2.111761 -9.875664 0.227134 1.826074 2.928877 -0.328411 -0.001876 0.060886 0.280072 -0.009049 -2.477232 1.113414 0.000000 0.000000 0.000000 0.330785 0.462407 0.187859 1.919017 1.660629 0.294792 12.229852 0.555181 -1.561232 0.000000 0.000000 0.000000 -0.351399 0.238664 0.017919 0.645311 -1.989848 -20.367522 2.156204 2.024062 -2.731272 15.196013 -12.187713 -51.747730 1.286029 -38.149499 1.682731 0.000000 0.000000 0.000000 -0.476295 0.152171 0.130302 0.163467 4.973362 23.851379 -4.308759 -3.942918 -2.548118 4.229777 2.843113 60.728380 1.866030 24.084246 0.472337 0.000000 0.000000 0.000000 
-0.532695 47.135052 -20.231655 0.000000 0.000000 0.000000 2.359222 -12.940569 1.865563 -8.612625 -10.324786 11.803937 110.531305 6.720548 3.359794 22.279304 3.537113 -18.609363 -1.064609 5.054950 45.753019 0.000000 0.000000 0.000000 3.146699 -8.857032 1.026491 -6.652396 8.640887 -10.219912 109.901254 1.821368 0.101612 21.696654 4.759525 13.404593 12.144547 24.032956 9.724605 0.000000 0.000000 0.000000 1.971437 -10.503735 -0.039687 1.760513 3.084677 -0.327686 0.006188 0.096815 0.349720 -0.102329 -2.244868 1.089643 0.000000 0.000000 0.000000 0.321216 0.497802 0.292361 2.522828 1.677664 0.641725 16.278970 0.656485 -2.200250 0.000000 0.000000 0.000000 -0.331480 0.228408 0.060201 0.699020 -1.748128 -20.160159 2.286751 2.109179 -2.588900 15.409247 -9.575912 -52.693738 1.292470 -40.936568 1.823713 0.000000 0.000000 0.000000 -0.466478 0.135273 0.207391 0.055181 4.511049 23.909926 -4.072978 -3.428524 -2.518758 3.907540 1.804453 59.920628 1.632950 23.390888 0.494010 0.000000 0.000000 0.000000 
-0.488458 46.954590 -20.261837 0.000000 0.000000 0.000000 2.460647 -13.266114 1.646395 -8.774111 -10.573886 12.017475 110.777984 6.307405 3.513061 22.480111 3.883982 -18.913586 -0.844137 5.223619 45.719155 0.000000 0.000000 0.000000 3.257919 -9.264073 0.784438 -7.190576 8.761618 -9.845134 110.160740 1.694175 -0.002656 21.740263 4.662770 13.362905 11.638852 23.975018 9.940130 0.000000 0.000000 0.000000 1.956162 -11.103679 -0.268277 1.798526 3.304052 -0.318325 0.040110 0.148100 0.399333 -0.151439 -2.086929 1.099327 0.000000 0.000000 0.000000 0.360294 0.574198 0.373955 3.079487 1.738028 0.836507 20.068511 0.599382 -2.754791 0.000000 0.000000 0.000000 -0.326245 0.267011 0.099432 0.756565 -1.567696 -19.977144 2.528899 2.323501 -2.464575 15.423967 -7.586700 -53.452278 1.229173 -43.346167 1.858780 0.000000 0.000000 0.000000 -0.455246 0.152782 0.259301 -0.091304 4.176180 23.863969 -3.798526 -2.899024 -2.461278 3.581828 0.917155 59.083479 1.421164 22.689885 0.509138 0.000000 0.000000 0.000000 
